<?xml version="1.0" encoding="utf-8"?>
<svg viewBox="0 0 500 500" xmlns="http://www.w3.org/2000/svg" xmlns:bx="https://boxy-svg.com">
  <g transform="matrix(0.829845, 0, 0, 0.829845, 96.642967, 16.773445)">
    <g>
      <path d="M 132.228 73.817 Q 171.004 6.655 209.78 73.817 L 289.855 212.51 Q 328.631 279.672 251.079 279.672 L 90.929 279.672 Q 13.377 279.672 52.153 212.51 Z" style="fill: rgb(98, 98, 98);" bx:shape="triangle 13.377 6.655 315.254 273.017 0.5 0.246 1@8a7d1b54"/>
      <g transform="matrix(1, 0, 0, 1.132374, 0, -50.710461)">
        <rect x="10.843" y="383.085" width="146.63" height="104.236" style="fill: rgb(98, 98, 98);" rx="25.625" ry="25.625"/>
        <rect x="184.535" y="383.085" width="146.63" height="104.236" style="fill: rgb(98, 98, 98);" rx="29.567" ry="29.567"/>
      </g>
    </g>
    <line x1="207.603" y1="247.227" x2="256.793" y2="429.933" style="stroke: rgb(98, 98, 98); stroke-width: 30; fill: rgb(98, 98, 98);"/>
    <line x1="77.6" y1="432.861" x2="126.79" y2="250.155" style="stroke: rgb(98, 98, 98); stroke-width: 30; fill: rgb(98, 98, 98);" transform="matrix(-1, 0, 0, -1, 204.389982, 683.015985)"/>
  </g>
  <g transform="matrix(0.706692, 0.707522, -0.707522, 0.706692, 250.861771, 23.815023)">
    <g>
      <path d="M 446 301 m -236.259 0 a 236.259 236.259 0 1 0 472.518 0 a 236.259 236.259 0 1 0 -472.518 0 Z M 446 301 m -186.633 0 a 186.633 186.633 0 0 1 373.266 0 a 186.633 186.633 0 0 1 -373.266 0 Z" transform="matrix(-0.012563, 0.999921, -0.999921, -0.012563, 450.671659, -282.631884)" style="fill: rgb(101, 189, 38);" bx:shape="ring 446 301 186.633 186.633 236.259 236.259 1@f34d0ae5"/>
      <rect x="284.772" y="122.17" width="207.341" height="69.772" rx="43.558" ry="43.558" style="fill: rgb(101, 189, 38);"/>
    </g>
  </g>
</svg>